<svg width="248" height="52" viewBox="0 0 248 52" fill="none" xmlns="http://www.w3.org/2000/svg">
<path d="M41.2704 25.3915C41.2704 29.7435 40.0971 33.4982 37.7504 36.6555C35.4037 39.7702 32.2464 41.8608 28.2784 42.9275C31.0944 46.4688 33.4197 48.8368 35.2544 50.0315C34.1877 50.5435 33.0571 50.8848 31.8624 51.0555C30.6677 51.2688 29.3024 51.3755 27.7664 51.3755C27.0837 50.0102 25.5477 47.4288 23.1584 43.6315H22.7104C19.7237 43.6315 17.0784 42.9488 14.7744 41.5835C12.4704 40.2182 10.6784 38.2982 9.3984 35.8235C8.16106 33.3062 7.5424 30.4262 7.5424 27.1835C7.5424 23.5568 8.3104 20.3355 9.8464 17.5195C11.3824 14.7035 13.5157 12.5062 16.2464 10.9275C18.9771 9.34883 22.0917 8.5595 25.5904 8.5595C28.7051 8.5595 31.4357 9.2635 33.7824 10.6715C36.1717 12.0795 38.0064 14.0635 39.2864 16.6235C40.6091 19.1408 41.2704 22.0635 41.2704 25.3915ZM24.1824 40.3035C27.5531 40.3035 30.2197 39.1515 32.1824 36.8475C34.1877 34.5008 35.1904 31.3222 35.1904 27.3115C35.1904 23.6848 34.3157 20.6982 32.5664 18.3515C30.8171 15.9622 28.3851 14.4902 25.2704 13.9355C23.0517 13.9355 21.0464 14.5115 19.2544 15.6635C17.5051 16.7728 16.1184 18.3302 15.0944 20.3355C14.1131 22.2982 13.6224 24.5382 13.6224 27.0555C13.6224 31.0235 14.5824 34.2235 16.5024 36.6555C18.4651 39.0875 21.0251 40.3035 24.1824 40.3035ZM56.4594 43.5035C51.5527 43.5035 49.0994 40.5595 49.0994 34.6715L49.2274 30.6395L49.3554 26.3515C49.3554 22.1702 48.9501 19.1835 48.1394 17.3915C50.2301 16.5382 52.5767 16.1115 55.1794 16.1115C54.9234 21.3168 54.7954 27.2902 54.7954 34.0315C54.7954 35.7382 55.1581 36.9968 55.8834 37.8075C56.6087 38.5755 57.7821 38.9595 59.4034 38.9595C61.4941 38.9595 63.3927 38.4688 65.0994 37.4875C65.0994 34.6288 65.1634 32.0902 65.2914 29.8715L65.3554 26.3515C65.3554 22.1702 64.9501 19.1835 64.1394 17.3915C66.2301 16.5382 68.5981 16.1115 71.2434 16.1115C71.0727 19.0555 70.9021 22.5542 70.7314 26.6075C70.5607 30.6182 70.4754 33.3062 70.4754 34.6715C70.4754 36.2075 70.6461 37.4235 70.9874 38.3195C71.3287 39.2155 71.9901 40.1755 72.9714 41.1995C71.4354 42.4795 69.7287 43.2475 67.8514 43.5035C66.5714 42.6075 65.7394 41.3275 65.3554 39.6635C64.2034 40.8582 62.8381 41.7968 61.2594 42.4795C59.7234 43.1622 58.1234 43.5035 56.4594 43.5035ZM84.1149 43.3755C82.8776 43.3755 82.0029 42.9915 81.4909 42.2235C80.9789 41.4555 80.7229 40.0902 80.7229 38.1275C80.7229 36.5488 80.7656 34.3088 80.8509 31.4075C80.9362 28.6768 80.9789 26.6715 80.9789 25.3915C80.9789 23.6422 80.8722 22.0422 80.6589 20.5915C80.4456 19.0982 80.1256 18.0315 79.6989 17.3915C80.8936 16.9222 82.0242 16.6022 83.0909 16.4315C84.2002 16.2182 85.4376 16.1115 86.8029 16.1115C86.5896 17.3488 86.3976 19.2688 86.2269 21.8715C86.0989 24.4315 86.0349 27.3115 86.0349 30.5115C86.0349 32.8582 86.0989 34.6502 86.2269 35.8875C86.3976 37.1248 86.6322 38.1062 86.9309 38.8315C87.2722 39.5568 87.8056 40.3035 88.5309 41.0715C87.8482 41.8395 87.1016 42.4155 86.2909 42.7995C85.4802 43.1835 84.7549 43.3755 84.1149 43.3755ZM83.3469 12.0795C82.1949 10.6715 80.8936 9.34883 79.4429 8.1115C80.7229 6.53283 82.0242 5.21016 83.3469 4.1435C84.5416 5.59416 85.8642 6.91683 87.3149 8.1115C86.1202 9.56216 84.7976 10.8848 83.3469 12.0795ZM104.668 43.5035C101.255 43.5035 98.6306 42.3942 96.7959 40.1755C95.0039 37.9142 94.1079 34.7142 94.1079 30.5755C94.1079 27.7595 94.6626 25.2635 95.7719 23.0875C96.8812 20.8688 98.4172 19.1408 100.38 17.9035C102.385 16.6662 104.668 16.0475 107.228 16.0475C110.641 16.0475 113.223 17.1782 114.972 19.4395C116.764 21.6582 117.66 24.9435 117.66 29.2955C115.399 29.8502 112.668 30.3408 109.468 30.7675C106.268 31.1515 103.111 31.3862 99.9959 31.4715C100.252 34.0742 100.956 35.9728 102.108 37.1675C103.303 38.3195 105.031 38.8955 107.292 38.8955C109.041 38.8955 110.684 38.7035 112.22 38.3195C113.799 37.8928 115.143 37.3168 116.252 36.5915L116.7 37.8075C115.377 39.5142 113.607 40.9008 111.388 41.9675C109.212 42.9915 106.972 43.5035 104.668 43.5035ZM99.8679 29.4235C102.001 29.2102 104.092 28.8688 106.14 28.3995C108.188 27.8875 109.809 27.3328 111.004 26.7355C110.961 24.4742 110.3 22.6182 109.02 21.1675C107.783 19.7168 106.183 18.9915 104.22 18.9915C102.897 19.7595 101.831 21.0822 101.02 22.9595C100.252 24.8368 99.8679 26.9915 99.8679 29.4235ZM130.347 43.3755C128.854 43.3755 127.809 43.0128 127.211 42.2875C126.614 41.5195 126.315 40.1968 126.315 38.3195C126.315 36.9968 126.358 34.8422 126.443 31.8555C126.529 28.6128 126.571 25.9248 126.571 23.7915C126.571 22.7675 126.529 21.7862 126.443 20.8475C124.737 20.8475 123.585 20.7408 122.987 20.5275C122.433 20.2715 122.155 19.8448 122.155 19.2475C124.929 17.6688 127.553 15.5142 130.027 12.7835L131.563 12.9755C131.734 14.4262 131.841 15.9195 131.883 17.4555C134.742 17.4128 136.833 17.2422 138.155 16.9435C138.155 17.8395 138.07 18.6288 137.899 19.3115C137.729 19.9942 137.451 20.6982 137.067 21.4235C135.83 20.9542 134.059 20.6982 131.755 20.6555C131.627 22.5755 131.563 24.5808 131.563 26.6715C131.563 31.9195 131.883 35.9088 132.523 38.6395C134.486 38.5115 136.065 38.2768 137.259 37.9355L137.643 39.4075C136.875 40.6022 135.809 41.5622 134.443 42.2875C133.078 43.0128 131.713 43.3755 130.347 43.3755ZM153.111 43.5035C148.845 43.5035 145.133 42.7355 141.975 41.1995C141.975 40.3035 142.061 39.5142 142.231 38.8315C142.402 38.1488 142.679 37.4448 143.063 36.7195C144.045 37.7435 145.389 38.5542 147.095 39.1515C148.802 39.7062 150.658 39.9835 152.663 39.9835C154.967 39.9835 156.717 39.5355 157.911 38.6395C159.149 37.7435 159.767 36.4635 159.767 34.7995C159.767 33.3915 159.17 32.2182 157.975 31.2795C156.781 30.3408 154.925 29.2528 152.407 28.0155C150.189 26.8635 148.418 25.8822 147.095 25.0715C145.815 24.2182 144.706 23.1302 143.767 21.8075C142.829 20.4422 142.359 18.8422 142.359 17.0075C142.359 14.5328 143.511 12.5275 145.815 10.9915C148.162 9.4555 151.298 8.6875 155.223 8.6875C158.765 8.6875 161.773 9.1995 164.247 10.2235C164.247 11.1622 164.077 12.2288 163.735 13.4235C163.394 14.6182 162.989 15.5568 162.519 16.2395C160.727 14.9595 158.871 13.8928 156.951 13.0395C155.074 12.1862 153.538 11.7595 152.343 11.7595C151.447 11.9302 150.573 12.4422 149.719 13.2955C148.866 14.1488 148.439 15.1728 148.439 16.3675C148.439 17.9035 149.058 19.1622 150.295 20.1435C151.533 21.1248 153.431 22.2555 155.991 23.5355C158.125 24.6022 159.831 25.5408 161.111 26.3515C162.391 27.1622 163.479 28.2075 164.375 29.4875C165.314 30.7675 165.783 32.2822 165.783 34.0315C165.783 37.0608 164.717 39.4075 162.583 41.0715C160.493 42.6928 157.335 43.5035 153.111 43.5035ZM182.631 43.5035C179.132 43.5035 176.316 42.3088 174.183 39.9195C172.05 37.5302 170.983 34.3942 170.983 30.5115C170.983 27.6955 171.559 25.1995 172.711 23.0235C173.906 20.8048 175.548 19.0982 177.639 17.9035C179.772 16.6662 182.183 16.0475 184.871 16.0475C187.26 16.0475 189.372 16.6022 191.207 17.7115C193.042 18.7782 194.45 20.2928 195.431 22.2555C196.455 24.2182 196.967 26.4795 196.967 29.0395C196.967 31.8555 196.348 34.3728 195.111 36.5915C193.916 38.7675 192.231 40.4742 190.055 41.7115C187.879 42.9062 185.404 43.5035 182.631 43.5035ZM183.783 40.8155C186.215 40.8155 188.114 40.0048 189.479 38.3835C190.844 36.7195 191.527 34.3942 191.527 31.4075C191.527 28.7622 190.908 26.4795 189.671 24.5595C188.434 22.6395 186.727 21.3382 184.551 20.6555C182.076 20.6555 180.092 21.5088 178.599 23.2155C177.148 24.8795 176.423 27.1408 176.423 29.9995C176.423 33.3275 177.106 35.9728 178.471 37.9355C179.879 39.8555 181.65 40.8155 183.783 40.8155ZM212.084 43.5035C207.178 43.5035 204.724 40.5595 204.724 34.6715L204.852 30.6395L204.98 26.3515C204.98 22.1702 204.575 19.1835 203.764 17.3915C205.855 16.5382 208.202 16.1115 210.804 16.1115C210.548 21.3168 210.42 27.2902 210.42 34.0315C210.42 35.7382 210.783 36.9968 211.508 37.8075C212.234 38.5755 213.407 38.9595 215.028 38.9595C217.119 38.9595 219.018 38.4688 220.724 37.4875C220.724 34.6288 220.788 32.0902 220.916 29.8715L220.98 26.3515C220.98 22.1702 220.575 19.1835 219.764 17.3915C221.855 16.5382 224.223 16.1115 226.868 16.1115C226.698 19.0555 226.527 22.5542 226.356 26.6075C226.186 30.6182 226.1 33.3062 226.1 34.6715C226.1 36.2075 226.271 37.4235 226.612 38.3195C226.954 39.2155 227.615 40.1755 228.596 41.1995C227.06 42.4795 225.354 43.2475 223.476 43.5035C222.196 42.6075 221.364 41.3275 220.98 39.6635C219.828 40.8582 218.463 41.7968 216.884 42.4795C215.348 43.1622 213.748 43.5035 212.084 43.5035ZM239.868 43.3755C238.588 43.3755 237.692 43.0128 237.18 42.2875C236.668 41.5195 236.412 40.1328 236.412 38.1275C236.412 36.8048 236.455 34.6928 236.54 31.7915C236.625 28.5488 236.668 25.8822 236.668 23.7915C236.668 16.9222 236.263 12.0155 235.452 9.0715C236.647 8.60216 237.777 8.28216 238.844 8.1115C239.953 7.89816 241.169 7.7915 242.492 7.7915C241.98 13.0822 241.724 20.6555 241.724 30.5115C241.724 32.8155 241.788 34.6075 241.916 35.8875C242.087 37.1248 242.343 38.1062 242.684 38.8315C243.025 39.5568 243.559 40.3035 244.284 41.0715C243.601 41.8395 242.855 42.4155 242.044 42.7995C241.233 43.1835 240.508 43.3755 239.868 43.3755Z" fill="#474747"/>
<path d="M2.94907 19.3608C1.60754 19.1931 1.63065 16.1404 3.38822 16.1404C5.07156 16.1404 5.30248 18.7753 3.82737 18.7753" stroke="#474747" stroke-width="3" stroke-linecap="round"/>
<path d="M12.3176 9.40674C12.1362 7.9549 11.726 6.47906 13.9279 6.47906C16.0694 6.47906 15.2264 7.9429 13.4887 7.9429" stroke="#474747" stroke-width="3" stroke-linecap="round"/>
<path d="M23.4428 4.13691C23.4428 2.7113 24.3514 1.65705 25.9151 2.1038C27.373 2.52036 24.4718 4.42968 23.7356 4.42968" stroke="#474747" stroke-width="3" stroke-linecap="round"/>
<path d="M139.086 11.4561C139.086 7.84702 146.134 5.97666 148.454 4.42969" stroke="#474747" stroke-width="3" stroke-linecap="round"/>
</svg>
