<svg xmlns="http://www.w3.org/2000/svg" xmlns:xlink="http://www.w3.org/1999/xlink" width="100" zoomAndPan="magnify" viewBox="0 0 75 74.999997" height="100" preserveAspectRatio="xMidYMid meet" version="1.0"><defs><clipPath id="712db08b24"><path d="M 3.75 3.75 L 71.25 3.75 L 71.25 71.25 L 3.75 71.25 Z M 3.75 3.75 " clip-rule="nonzero"/></clipPath><clipPath id="9159010546"><path d="M 37.5 3.75 C 18.859375 3.75 3.75 18.859375 3.75 37.5 C 3.75 56.140625 18.859375 71.25 37.5 71.25 C 56.140625 71.25 71.25 56.140625 71.25 37.5 C 71.25 18.859375 56.140625 3.75 37.5 3.75 Z M 37.5 3.75 " clip-rule="nonzero"/></clipPath><clipPath id="6899060fbb"><path d="M 28 24 L 54.679688 24 L 54.679688 31 L 28 31 Z M 28 24 " clip-rule="nonzero"/></clipPath><clipPath id="9762f06da0"><path d="M 20.179688 24 L 27 24 L 27 31 L 20.179688 31 Z M 20.179688 24 " clip-rule="nonzero"/></clipPath><clipPath id="bcb53db6e0"><path d="M 20.179688 34 L 27 34 L 27 41 L 20.179688 41 Z M 20.179688 34 " clip-rule="nonzero"/></clipPath><clipPath id="d22107628a"><path d="M 20.179688 43 L 27 43 L 27 51 L 20.179688 51 Z M 20.179688 43 " clip-rule="nonzero"/></clipPath><clipPath id="296a0e6119"><path d="M 28 34 L 54.679688 34 L 54.679688 41 L 28 41 Z M 28 34 " clip-rule="nonzero"/></clipPath><clipPath id="0d18d0b940"><path d="M 28 43 L 54.679688 43 L 54.679688 51 L 28 51 Z M 28 43 " clip-rule="nonzero"/></clipPath></defs><g clip-path="url(#712db08b24)"><g clip-path="url(#9159010546)"><path fill="#474747" d="M 3.75 3.75 L 71.25 3.75 L 71.25 71.25 L 3.75 71.25 Z M 3.75 3.75 " fill-opacity="1" fill-rule="nonzero"/></g></g><g clip-path="url(#6899060fbb)"><path fill="#ffffff" d="M 51.503906 24.507812 L 32.015625 24.507812 C 30.265625 24.507812 28.839844 25.933594 28.839844 27.6875 C 28.839844 29.4375 30.265625 30.863281 32.015625 30.863281 L 51.503906 30.863281 C 53.253906 30.863281 54.679688 29.4375 54.679688 27.6875 C 54.679688 25.933594 53.253906 24.507812 51.503906 24.507812 Z M 51.503906 24.507812 " fill-opacity="1" fill-rule="nonzero"/></g><g clip-path="url(#9762f06da0)"><path fill="#ffffff" d="M 23.355469 24.507812 C 21.605469 24.507812 20.179688 25.933594 20.179688 27.6875 C 20.179688 29.4375 21.605469 30.863281 23.355469 30.863281 C 25.105469 30.863281 26.53125 29.4375 26.53125 27.6875 C 26.53125 25.933594 25.105469 24.507812 23.355469 24.507812 Z M 23.355469 24.507812 " fill-opacity="1" fill-rule="nonzero"/></g><g clip-path="url(#bcb53db6e0)"><path fill="#ffffff" d="M 23.355469 34.253906 C 21.605469 34.253906 20.179688 35.679688 20.179688 37.429688 C 20.179688 39.179688 21.605469 40.605469 23.355469 40.605469 C 25.105469 40.605469 26.53125 39.179688 26.53125 37.429688 C 26.53125 35.679688 25.105469 34.253906 23.355469 34.253906 Z M 23.355469 34.253906 " fill-opacity="1" fill-rule="nonzero"/></g><g clip-path="url(#d22107628a)"><path fill="#ffffff" d="M 23.355469 43.996094 C 21.605469 43.996094 20.179688 45.421875 20.179688 47.171875 C 20.179688 48.925781 21.605469 50.347656 23.355469 50.347656 C 25.105469 50.347656 26.53125 48.925781 26.53125 47.171875 C 26.53125 45.421875 25.105469 43.996094 23.355469 43.996094 Z M 23.355469 43.996094 " fill-opacity="1" fill-rule="nonzero"/></g><g clip-path="url(#296a0e6119)"><path fill="#ffffff" d="M 51.503906 34.253906 L 32.015625 34.253906 C 30.265625 34.253906 28.839844 35.675781 28.839844 37.429688 C 28.839844 39.179688 30.265625 40.605469 32.015625 40.605469 L 51.503906 40.605469 C 53.253906 40.605469 54.679688 39.179688 54.679688 37.429688 C 54.679688 35.675781 53.253906 34.253906 51.503906 34.253906 Z M 51.503906 34.253906 " fill-opacity="1" fill-rule="nonzero"/></g><g clip-path="url(#0d18d0b940)"><path fill="#ffffff" d="M 51.503906 43.996094 L 32.015625 43.996094 C 30.265625 43.996094 28.839844 45.421875 28.839844 47.171875 C 28.839844 48.925781 30.265625 50.347656 32.015625 50.347656 L 51.503906 50.347656 C 53.253906 50.347656 54.679688 48.925781 54.679688 47.171875 C 54.679688 45.421875 53.253906 43.996094 51.503906 43.996094 Z M 51.503906 43.996094 " fill-opacity="1" fill-rule="nonzero"/></g></svg>