<svg width="46" height="46" viewBox="0 0 46 46" fill="none" xmlns="http://www.w3.org/2000/svg">
<path d="M41.7669 5.77399H15.7811C13.4469 5.77399 11.5479 7.67301 11.5479 10.01C11.5479 12.3442 13.4469 14.2432 15.7811 14.2432H41.7668C44.1009 14.2432 45.9999 12.3442 45.9999 10.01C46 7.67292 44.101 5.77399 41.7669 5.77399Z" fill="#474747"/>
<path d="M4.2347 5.77399C1.89975 5.77399 0 7.67364 0 10.0086C0 12.3435 1.89975 14.2432 4.2347 14.2432C6.56964 14.2432 8.4693 12.3435 8.4693 10.0086C8.4693 7.67364 6.56964 5.77399 4.2347 5.77399Z" fill="#474747"/>
<path d="M4.2347 18.7654C1.89975 18.7654 0 20.6651 0 23C0 25.3349 1.89975 27.2346 4.2347 27.2346C6.56964 27.2346 8.4693 25.3349 8.4693 23C8.4693 20.6651 6.56964 18.7654 4.2347 18.7654Z" fill="#474747"/>
<path d="M4.2347 31.7568C1.89975 31.7568 0 33.6565 0 35.9914C0 38.3264 1.89975 40.226 4.2347 40.226C6.56964 40.226 8.4693 38.3264 8.4693 35.9914C8.4693 33.6565 6.56964 31.7568 4.2347 31.7568Z" fill="#474747"/>
<path d="M41.7669 18.7654H15.7811C13.4469 18.7654 11.5479 20.6644 11.5479 23.0014C11.5479 25.3356 13.4469 27.2346 15.7811 27.2346H41.7668C44.1009 27.2346 45.9999 25.3356 45.9999 23.0014C46 20.6643 44.101 18.7654 41.7669 18.7654Z" fill="#474747"/>
<path d="M41.7669 31.7568H15.7811C13.4469 31.7568 11.5479 33.6558 11.5479 35.9928C11.5479 38.327 13.4469 40.226 15.7811 40.226H41.7668C44.1009 40.226 45.9999 38.327 45.9999 35.9928C46 33.6558 44.101 31.7568 41.7669 31.7568Z" fill="#474747"/>
</svg>
